<svg xmlns="http://www.w3.org/2000/svg" viewBox="0 0 100 100" width="100" height="100"><path d="M0 0q1.27 0.093 3.388 0.184t4.234 0.092q2.305 0 4.446 -0.092 2.14 -0.092 3.034 -0.092Q21.219 0.092 24.254 4.147q3.035 4.056 3.035 10.414 0 3.225 -1.082 6.59t-3.317 5.99 -5.716 3.64v0.185q4.611 0.552 7.363 3.087t3.976 6.037q1.223 3.502 1.223 7.28 0 5.99 -1.623 9.954t-4.658 5.944q-3.035 1.982 -7.269 1.982 -1.129 0 -3.293 -0.138 -2.165 -0.138 -5.176 -0.138 -2.211 0 -4.329 0.046 -2.117 0.046 -3.388 0.231v-1.843q1.459 -0.184 2.188 -0.738 0.729 -0.553 0.988 -2.212 0.259 -1.659 0.259 -4.977V9.769q0 -3.41 -0.259 -5.023T2.187 2.535Q1.459 1.935 0 1.843zm14.679 1.843q-1.694 0 -2.212 1.567t-0.518 6.359V30.597h1.647q2.023 0 3.105 -2.074t1.506 -5.53 0.424 -7.419q0 -6.82 -0.918 -10.276T14.679 1.843m-2.728 53.638q0 3.225 0.259 4.884t0.917 2.212 1.976 0.553q3.011 0 4.399 -4.193t1.388 -11.935q0 -7.096 -1.765 -10.967Q17.361 32.165 13.268 32.164h-1.317zm0 -23.316v-1.567z" id="bb"/><path d="M62.319 0v1.843q-1.459 0.461 -2.211 1.751 -0.753 1.29 -0.988 3.963t-0.235 7.557v22.116q0 5.898 -0.4 10.875 -0.4 4.976 -1.529 8.663 -1.223 3.962 -3.623 6.266t-6.21 2.304q-2.164 0 -4.493 -0.968 -2.329 -0.967 -4.163 -3.548 -1.552 -2.396 -2.376 -5.622 -0.823 -3.226 -1.106 -7.604t-0.282 -10.091V9.769q0 -3.41 -0.259 -5.023t-0.988 -2.212q-0.729 -0.599 -2.188 -0.691V0q1.27 0.093 3.388 0.184t4.422 0.092q2.306 0 4.422 -0.092T47.028 0v1.843q-1.6 0.093 -2.423 0.691t-1.106 2.212 -0.282 5.023v35.019q0 4.516 0.353 7.834t1.082 5.437q0.729 2.12 1.905 3.088 1.177 0.967 2.823 0.967 3.247 0 5.082 -2.995 1.835 -2.996 2.588 -8.433t0.753 -12.441V16.589q0 -5.621 -0.282 -8.617 -0.282 -2.995 -1.27 -4.332 -0.988 -1.336 -3.105 -1.797V0q0.894 0.093 2.376 0.184t2.799 0.092q1.082 0 2.188 -0.092 1.105 -0.092 1.811 -0.184" id="bu"/><path d="M93.69 0a442.91 442.91 0 0 0 -0.259 9.769q-0.071 4.7 -0.071 7.188 0 2.028 0.047 3.779 0.047 1.751 0.094 3.041h-1.082q-0.941 -8.202 -2.259 -12.948t-2.988 -6.728q-1.67 -1.982 -3.599 -1.982h-0.565v52.624q0 3.779 0.4 5.622t1.506 2.443 3.223 0.599v1.843q-1.552 -0.093 -4.163 -0.184a154.478 154.478 0 0 0 -5.434 -0.093q-2.776 0 -5.222 0.093 -2.446 0.092 -3.952 0.184v-1.843q2.117 0 3.247 -0.599 1.129 -0.599 1.505 -2.443 0.377 -1.843 0.377 -5.622V2.12h-0.518q-1.976 0 -3.622 1.982 -1.647 1.982 -2.964 6.681 -1.318 4.7 -2.305 12.994h-1.082q0.094 -1.29 0.118 -3.041t0.024 -3.779q0 -2.488 -0.071 -7.188A442.91 442.91 0 0 0 63.815 0q2.211 0.093 4.87 0.184 2.658 0.092 5.293 0.092h9.622a151.493 151.493 0 0 0 5.293 -0.092Q91.526 0.093 93.69 0" id="bt"/><path cx="474.451" cy="300.722" rx="25.549" ry="25.549" id="dot" d="M100 60.144a5.11 5.11 0 0 1 -5.11 5.11 5.11 5.11 0 0 1 -5.11 -5.11 5.11 5.11 0 0 1 10.22 0"/><path d="M7.894 99.472v-0.754q0.574 -0.076 0.862 -0.301t0.39 -0.905q0.102 -0.679 0.102 -2.037v-9.052H4.707v9.052q0 1.357 0.102 2.037t0.389 0.905 0.862 0.301v0.754q-0.519 -0.076 -1.325 -0.094a68.284 68.284 0 0 0 -1.621 -0.019q-0.945 0 -1.779 0.019 -0.834 0.018 -1.334 0.094v-0.754q0.575 -0.076 0.862 -0.301t0.389 -0.905 0.102 -2.037v-18.708q0 -1.396 -0.102 -2.056 -0.102 -0.66 -0.389 -0.905T0 73.522v-0.754q0.5 0.038 1.334 0.076t1.779 0.038q0.815 0 1.621 -0.038t1.325 -0.076v0.754q-0.574 0.038 -0.871 0.283 -0.296 0.245 -0.389 0.905t-0.093 2.056v8.901h4.54v-8.901q0 -1.396 -0.102 -2.056t-0.39 -0.905q-0.287 -0.245 -0.862 -0.283v-0.754q0.537 0.038 1.39 0.076t1.705 0.038q0.907 0 1.696 -0.038 0.787 -0.038 1.27 -0.076v0.754q-0.575 0.038 -0.871 0.283 -0.297 0.245 -0.39 0.905t-0.093 2.056v18.708q0 1.357 0.102 2.037 0.101 0.679 0.389 0.905t0.862 0.301v0.754q-0.482 -0.076 -1.27 -0.094a70.149 70.149 0 0 0 -1.696 -0.019q-0.852 0 -1.705 0.019 -0.852 0.018 -1.39 0.094" id="hh"/><path d="M23.498 74.522q0.769 1.603 1.213 4.545 0.445 2.942 0.445 6.978c0 2.59 -0.13 4.684 -0.39 6.684q-0.389 2.999 -1.121 4.696 -0.732 1.697 -1.714 1.698 -0.927 0 -1.686 -1.603 -0.76 -1.603 -1.214 -4.563c-0.302 -1.974 -0.454 -4.094 -0.454 -6.759q0 -3.923 0.399 -6.902t1.122 -4.677 1.704 -1.697q0.927 0 1.696 1.603m-5.124 -0.509q-1.519 1.772 -2.4 4.941t-0.88 7.393c0 2.867 0.281 5.118 0.843 7.155q0.843 3.055 2.372 4.677 1.528 1.621 3.548 1.621 1.983 0 3.521 -1.772 1.538 -1.773 2.4 -4.941c0.575 -2.112 0.862 -4.376 0.862 -7.193q0 -4.338 -0.843 -7.374t-2.363 -4.658 -3.558 -1.622q-1.983 0 -3.502 1.773" id="ho"/><path d="M42.2 72.768v0.754q-0.556 0.188 -0.852 0.717t-0.399 1.622q-0.102 1.094 -0.102 3.093v20.556a1.754 1.754 0 0 0 -0.519 -0.076q-0.278 0 -0.593 0.076l-8.135 -19.5v12.673q0 2.301 0.111 3.526t0.5 1.754q0.39 0.528 1.223 0.754v0.754q-0.352 -0.076 -0.935 -0.094a33.582 33.582 0 0 0 -1.102 -0.019q-0.408 0 -0.843 0.019 -0.435 0.018 -0.732 0.094v-0.754q0.593 -0.226 0.88 -0.735t0.38 -1.622 0.093 -3.074v-16.52q0 -1.396 -0.093 -2.056t-0.389 -0.905 -0.871 -0.283v-0.754q0.296 0.038 0.732 0.076t0.843 0.038q0.463 0 0.89 -0.038a42.91 42.91 0 0 0 0.778 -0.076l7.356 17.124v-10.335q0 -2.301 -0.102 -3.526t-0.482 -1.773 -1.251 -0.735v-0.754q0.371 0.038 0.954 0.076 0.583 0.038 1.084 0.038 0.445 0 0.871 -0.038a16.045 16.045 0 0 0 0.704 -0.076" id="hn"/><path d="M53.408 72.768q-0.074 1.773 -0.102 3.432 -0.028 1.66 -0.028 2.527 0 0.754 0.018 1.471t0.037 1.169h-0.426q-0.204 -2.942 -0.658 -4.639t-1.112 -2.395 -1.454 -0.698h-0.5q-0.5 0 -0.769 0.17 -0.269 0.169 -0.352 0.698 -0.083 0.528 -0.083 1.66v9.505h0.389q0.537 0 0.945 -0.472 0.407 -0.471 0.695 -1.226 0.288 -0.754 0.472 -1.622 0.185 -0.868 0.241 -1.66h0.426q-0.074 2.15 -0.065 3.281t0.009 2.074 0.018 2.074 0.093 3.282h-0.426q-0.093 -1.357 -0.389 -2.489t-0.797 -1.811 -1.223 -0.679h-0.389v9.656q0 1.094 0.083 1.641 0.083 0.547 0.352 0.717 0.268 0.17 0.769 0.17h0.76q0.722 0 1.38 -0.773t1.177 -2.64q0.518 -1.867 0.778 -5.073h0.426q-0.056 1.282 -0.056 3.319 0 0.905 0.018 2.565a87.687 87.687 0 0 0 0.112 3.47q-0.945 -0.076 -2.131 -0.094a132.09 132.09 0 0 0 -2.112 -0.019h-1.223q-0.741 0 -1.612 0.019l-1.76 0.037q-0.89 0.019 -1.668 0.056v-0.754q0.574 -0.076 0.862 -0.301t0.389 -0.905 0.102 -2.037v-18.708q0 -1.396 -0.102 -2.056t-0.389 -0.905 -0.862 -0.283v-0.754q0.796 0.038 1.677 0.056l1.742 0.038q0.862 0.019 1.612 0.019h1.232q0.852 0 1.937 -0.019 1.084 -0.019 1.937 -0.094" id="he"/><path d="M60.02 72.278q1.149 0 1.779 0.472t1.075 1q0.222 0.264 0.361 0.396 0.139 0.132 0.269 0.132 0.185 0 0.268 -0.415t0.139 -1.244h0.426q-0.018 0.754 -0.046 1.772t-0.037 2.697q-0.009 1.679 -0.009 4.432h-0.426q-0.074 -2.037 -0.463 -3.922 -0.389 -1.886 -1.065 -3.131t-1.659 -1.245q-0.852 0 -1.409 0.962t-0.556 2.734q0 1.433 0.352 2.471t1.065 2.094 1.807 2.602q0.871 1.17 1.557 2.338t1.102 2.64 0.417 3.546q0 2.489 -0.667 4.13t-1.761 2.451q-1.091 0.812 -2.388 0.812 -1.205 0 -1.918 -0.452 -0.713 -0.453 -1.213 -0.943 -0.407 -0.528 -0.63 -0.528 -0.185 0 -0.269 0.415 -0.083 0.415 -0.139 1.244h-0.426a70.149 70.149 0 0 0 0.046 -2.206q0.009 -1.263 0.018 -3.262 0.01 -1.999 0.01 -5.091h0.426q0.074 2.565 0.417 4.79 0.343 2.226 1.056 3.602t1.899 1.377q0.667 0 1.167 -0.452 0.501 -0.452 0.797 -1.339 0.297 -0.887 0.297 -2.168 0 -1.584 -0.352 -2.753a10 10 0 0 0 -0.963 -2.206q-0.611 -1.038 -1.427 -2.094a36.94 36.94 0 0 1 -1.631 -2.376q-0.76 -1.207 -1.214 -2.697 -0.454 -1.49 -0.454 -3.602 0 -2.414 0.611 -3.96t1.621 -2.282 2.14 -0.735" id="hs"/><path d="M77.89 72.768a187.687 187.687 0 0 0 -0.102 3.998q-0.028 1.924 -0.028 2.941 0 0.83 0.018 1.546 0.018 0.717 0.037 1.245h-0.426q-0.371 -3.357 -0.89 -5.299 -0.518 -1.943 -1.177 -2.753 -0.658 -0.811 -1.417 -0.811h-0.222v21.537q0 1.546 0.157 2.301t0.593 1 1.27 0.245v0.754a69.776 69.776 0 0 0 -1.64 -0.075 58.582 58.582 0 0 0 -2.14 -0.038q-1.093 0 -2.056 0.038t-1.557 0.075v-0.754q0.834 0 1.279 -0.245 0.444 -0.245 0.593 -1t0.148 -2.301v-21.537h-0.204q-0.778 0 -1.427 0.811t-1.167 2.735 -0.908 5.318h-0.426q0.037 -0.528 0.046 -1.245t0.009 -1.546q0 -1.018 -0.028 -2.941a186.567 186.567 0 0 0 -0.102 -3.998q0.871 0.038 1.918 0.076 1.048 0.038 2.085 0.038h3.789q1.046 0 2.084 -0.038t1.89 -0.076" id="ht"/><path d="M85.124 72.768v0.754q-0.63 0.038 -0.954 0.283t-0.435 0.905q-0.111 0.66 -0.111 2.056v19.311q0 1.094 0.083 1.641 0.083 0.547 0.306 0.717 0.222 0.17 0.667 0.17h0.76q0.556 0 1.112 -0.679t1.038 -1.904 0.834 -2.829q0.352 -1.602 0.5 -3.451h0.426q-0.056 1.32 -0.056 3.394 0 0.943 0.018 2.697a94.403 94.403 0 0 0 0.111 3.64q-0.945 -0.076 -2.131 -0.094a132.09 132.09 0 0 0 -2.113 -0.019h-1.223q-0.741 0 -1.612 0.019l-1.76 0.037a63.06 63.06 0 0 0 -1.668 0.056v-0.754q0.574 -0.076 0.862 -0.301t0.389 -0.905 0.102 -2.037v-18.708q0 -1.396 -0.102 -2.056t-0.389 -0.905 -0.862 -0.283v-0.754q0.5 0.038 1.334 0.076 0.834 0.038 1.779 0.038 0.871 0 1.705 -0.038t1.39 -0.076" id="hl"/><path d="M96.183 95.474q0 1.357 0.102 2.037t0.389 0.905 0.862 0.301v0.754q-0.518 -0.076 -1.362 -0.094 -0.843 -0.019 -1.659 -0.019 -0.908 0 -1.732 0.019 -0.825 0.018 -1.306 0.094v-0.754q0.575 -0.076 0.862 -0.301 0.288 -0.226 0.389 -0.905 0.102 -0.679 0.102 -2.037v-6.649l-3.502 -13.19q-0.315 -1.244 -0.593 -1.678t-0.482 -0.434v-0.792q0.537 0.113 1.112 0.17 0.574 0.056 1.26 0.056 0.89 0 1.909 -0.076 1.019 -0.075 1.872 -0.151v0.792q-0.463 0 -0.843 0.113 -0.38 0.113 -0.537 0.452t0.028 1.132l2.744 10.704 1.147 -4.669q0.723 -2.904 0.788 -4.583t-0.352 -2.414 -1.158 -0.773v-0.754q0.667 0.038 1.213 0.076t1.159 0.038q0.389 0 0.76 -0.038a19.776 19.776 0 0 0 0.649 -0.076v0.754q-0.407 0.377 -0.862 1.452t-0.991 3.225l-1.964 7.909Z" id="hy"/></svg>