<?xml version="1.0" encoding="utf-8"?>
<svg xmlns="http://www.w3.org/2000/svg" viewBox="0 0 512 512" xmlns:bx="https://boxy-svg.com" width="512px" height="512px"><defs><bx:export><bx:file format="svg" href="#bb"/><bx:file format="svg" href="#dot" path="Untitled 2.svg"/><bx:file format="svg" href="#hh" path="Untitled 3.svg"/><bx:file format="svg" path="Untitled 4.svg"/></bx:export></defs><g style="" transform="matrix(0.597584, 0, 0, 0.597584, 103.018578, 103.018578)"><path d="M 0 0 C 5.49 0.486 12.808 0.965 21.96 1.444 C 31.112 1.922 40.258 2.158 49.403 2.166 C 59.366 2.166 68.971 1.922 78.221 1.444 C 87.47 0.965 94.023 0.722 97.886 0.722 C 124.318 0.722 144.094 11.33 157.206 32.538 C 170.319 53.755 176.878 80.989 176.878 114.249 C 176.878 131.119 174.538 148.357 169.865 165.956 C 165.192 183.555 158.023 199.224 148.365 212.955 C 138.708 226.686 126.36 236.204 111.316 241.516 L 111.316 242.967 C 131.241 245.855 147.147 253.929 159.041 267.189 C 170.935 280.449 179.523 296.236 184.812 314.557 C 190.094 332.878 192.739 351.913 192.739 371.677 C 192.739 403.008 189.232 429.041 182.219 449.779 C 175.206 470.517 165.14 486.06 152.028 496.417 C 138.915 506.782 123.21 511.969 104.912 511.969 C 100.032 511.969 92.921 511.608 83.568 510.886 C 74.215 510.164 63.028 509.803 50.019 509.803 C 40.465 509.803 31.112 509.921 21.96 510.164 C 12.814 510.407 5.49 511.011 0 511.976 L 0 497.516 C 6.307 496.551 11.032 494.621 14.182 491.725 C 17.332 488.83 19.464 483.047 20.586 474.369 C 21.707 465.691 22.265 452.674 22.265 435.318 L 22.265 76.65 C 22.265 58.816 21.707 45.673 20.586 37.238 C 19.464 28.804 17.332 23.021 14.175 19.89 C 11.032 16.752 6.307 14.939 0 14.461 L 0 0 Z M 95.144 14.461 C 87.827 14.461 83.043 18.556 80.807 26.756 C 78.571 34.955 77.449 51.581 77.449 76.65 L 77.449 240.072 L 88.125 240.072 C 96.869 240.072 103.577 234.65 108.25 223.799 C 112.924 212.948 116.177 198.487 118.012 180.409 C 119.846 162.331 120.76 142.928 120.76 122.198 C 120.76 86.521 118.777 59.647 114.81 41.569 C 110.843 23.492 104.29 14.453 95.144 14.461 M 77.462 435.318 C 77.462 452.188 78.02 464.962 79.141 473.64 C 80.263 482.318 82.239 488.1 85.085 490.996 C 87.93 493.891 92.195 495.335 97.893 495.335 C 110.901 495.335 120.41 484.365 126.406 462.435 C 132.401 440.505 135.402 409.285 135.402 368.79 C 135.402 331.669 131.591 302.991 123.962 282.74 C 116.339 262.497 103.687 252.375 85.999 252.367 L 77.462 252.367 L 77.462 435.318 Z M 77.462 252.375 L 77.462 240.08 L 77.462 252.375 Z" id="bb" style="stroke-width: 7.164;"/><path cx="474.451" cy="300.722" rx="25.549" ry="25.549" id="dot" d="M 275.05 471.906 C 275.05 494.048 260.22 512 241.928 512 C 223.637 512 208.807 494.048 208.807 471.906 C 208.807 441.038 236.406 421.752 258.489 437.178 C 268.736 444.342 275.05 457.578 275.05 471.906" style="stroke-width: 7.164;"/><path d="M 416.078 512 L 416.078 497.555 C 422.145 496.574 426.682 494.66 429.722 491.788 C 432.762 488.908 434.816 483.118 435.892 474.44 C 436.975 465.762 437.513 452.745 437.513 435.405 L 437.513 261.94 L 365.631 261.94 L 365.631 435.405 C 365.631 452.745 366.162 465.762 367.238 474.44 C 368.314 483.118 370.376 488.908 373.402 491.788 C 376.416 494.66 380.98 496.574 387.046 497.555 L 387.046 512 C 381.569 511.027 374.569 510.431 366.072 510.203 C 357.522 509.952 348.954 509.834 340.411 509.834 C 330.429 509.834 321.05 509.952 312.248 510.203 C 303.439 510.431 296.4 511.027 291.124 512 L 291.124 497.555 C 297.191 496.574 301.748 494.66 304.768 491.788 C 307.795 488.908 309.85 483.118 310.932 474.44 C 312.008 465.762 312.546 452.745 312.546 435.405 L 312.546 76.893 C 312.546 59.059 312.008 45.932 310.932 37.497 C 309.85 29.063 307.795 23.272 304.768 20.157 C 301.748 17.026 297.191 15.214 291.111 14.704 L 291.111 0.259 C 296.387 0.738 303.426 1.232 312.235 1.718 C 321.037 2.197 330.416 2.44 340.391 2.44 C 348.986 2.44 357.555 2.197 366.052 1.718 C 374.556 1.232 381.556 0.738 387.027 0.259 L 387.027 14.704 C 380.967 15.183 376.371 17.011 373.24 20.134 C 370.123 23.256 368.068 29.039 367.083 37.474 C 366.104 45.908 365.605 59.035 365.605 76.87 L 365.605 247.448 L 437.48 247.448 L 437.48 76.87 C 437.48 59.035 436.942 45.908 435.866 37.474 C 434.79 29.039 432.729 23.256 429.689 20.134 C 426.669 17.011 422.112 15.183 416.045 14.704 L 416.045 0.259 C 421.71 0.738 429.041 1.232 438.051 1.718 C 447.054 2.197 456.05 2.44 465.04 2.44 C 474.62 2.44 483.565 2.197 491.887 1.718 C 500.203 1.232 506.899 0.738 512 0.259 L 512 14.704 C 505.933 15.183 501.325 17.011 498.207 20.134 C 495.076 23.256 493.009 29.039 492.036 37.474 C 491.051 45.908 490.559 59.035 490.559 76.87 L 490.559 435.389 C 490.559 452.729 491.097 465.738 492.173 474.416 C 493.236 483.102 495.29 488.869 498.33 491.764 C 501.37 494.66 505.92 496.574 511.981 497.531 L 511.981 511.984 C 506.899 511.004 500.19 510.407 491.874 510.18 C 482.93 509.929 473.972 509.795 465.027 509.819 C 456.031 509.819 447.041 509.929 438.038 510.18 C 429.041 510.407 421.71 511.004 416.032 511.984" id="hh" style="stroke-width: 7.164;"/></g></svg>